<svg width="1200" height="800" viewBox="0 0 1200 800" fill="none" xmlns="http://www.w3.org/2000/svg">
<g id="Weekly Report ">
<rect id="Report Image" width="1200" height="800" fill="white"/>
<g id="Circle Grapth">
<g id="Condition Grapth">
<circle id="Ellipse 11" cx="332" cy="384" r="280" fill="#91C5BE"/>
<circle id="Ellipse 12" cx="332" cy="384" r="280" fill="#91C5BE"/>
<circle id="Ellipse 13" cx="332" cy="384" r="280" fill="#91C5BE"/>
</g>
<g id="Feeling Grapth">
<circle id="Ellipse 16" cx="327" cy="384" r="180" fill="#FFFFDB"/>
<circle id="Ellipse 17" cx="327" cy="384" r="180" fill="#FFFFDB"/>
<circle id="Ellipse 18" cx="327" cy="384" r="180" fill="#FFFFDB"/>
</g>
<g id="Center">
<circle id="Ellipse 13_2" cx="327" cy="384" r="80" fill="white"/>
<g id="Hart">
<path id="Vector" d="M295.597 355.952C297.245 353.806 299.663 352.604 302.003 351.4C303.69 350.532 305.593 350.101 307.623 350.014C310.814 349.878 313.63 350.718 316.104 352.403C317.609 353.428 318.939 354.719 320.148 356.041C321.222 357.22 322.084 358.573 322.929 359.909C324.211 361.937 325.135 364.109 325.748 366.389C326.348 368.625 326.854 370.873 326.933 373.185C326.936 373.284 327.024 373.383 327.073 373.482C327.193 373.367 327.399 373.263 327.421 373.136C327.713 371.342 328.502 369.704 329.241 368.044C330.009 366.314 330.987 364.696 332.301 363.275C333.496 361.984 334.743 360.726 336.058 359.537C337.89 357.877 339.718 356.196 341.712 354.705C343.751 353.181 346.099 352.1 348.722 351.596C352.756 350.82 356.532 351.156 359.585 353.963C361.358 355.592 362.353 357.655 362.672 359.945C362.85 361.23 363.046 362.535 362.99 363.821C362.898 366.01 362.407 368.153 361.75 370.272C360.773 373.425 359.254 376.361 357.756 379.317C356.512 381.77 355.458 384.302 354.235 386.764C353.481 388.281 352.578 389.734 351.717 391.204C350.891 392.614 350.077 394.032 349.182 395.404C347.272 398.334 345.319 401.239 343.373 404.147C340.877 407.876 338.398 411.617 335.842 415.313C335.237 416.188 334.431 416.975 333.588 417.672C332.865 418.27 332.035 417.998 331.401 417.279C330.86 416.665 330.196 416.143 329.576 415.589C327.157 413.425 324.652 411.337 322.343 409.082C320.688 407.466 319.256 405.653 317.796 403.879C316.555 402.372 314.975 401.214 313.401 400.041C312.039 399.029 310.663 398.032 309.28 397.045C306.253 394.886 303.388 392.564 300.752 390.012C298.74 388.063 297.056 385.891 295.542 383.592C293.762 380.89 292.592 377.969 291.717 374.95C291.369 373.748 291.315 372.471 291.178 371.223C291.077 370.299 290.949 369.359 291.021 368.44C291.244 365.582 291.758 362.772 293.179 360.171C293.945 358.767 294.762 357.382 295.597 355.952ZM343.034 358.378C341.517 358.95 340.051 359.589 339.015 360.82C337.522 362.591 335.884 364.277 334.582 366.159C333.009 368.433 331.672 370.849 330.326 373.248C329.104 375.429 328.87 377.864 328.461 380.24C328.255 381.442 328.244 382.671 328.101 383.884C327.965 385.023 326.868 385.615 326.114 384.934C325.813 384.663 325.863 384.071 325.743 383.627C325.705 383.478 325.637 383.336 325.583 383.192C325.469 383.311 325.315 383.416 325.248 383.555C324.951 384.162 324.708 384.791 324.388 385.386C324.132 385.861 323.152 386.197 322.77 385.916C322.304 385.573 321.803 385.222 322.186 384.488C322.81 383.29 323.335 382.047 323.871 380.813C324.118 380.243 324.366 379.712 324.008 379.026C323.08 377.251 322.256 375.429 321.426 373.612C320.065 370.644 318.253 367.92 316.106 365.383C315.009 364.085 313.818 362.854 312.658 361.601C310.419 359.187 307.931 357.052 304.659 355.845C303.387 355.373 302.069 355.036 300.678 355.452C299.404 355.832 298.709 356.833 297.943 357.708C297.415 358.309 297.018 359.054 296.761 359.792C296.35 360.973 296.098 362.188 296.381 363.462C296.59 364.401 296.521 365.397 296.772 366.323C297.481 368.941 298.541 371.452 299.921 373.832C301.339 376.28 302.8 378.709 304.341 381.095C306.024 383.703 307.772 386.278 309.577 388.818C311.61 391.68 313.719 394.499 315.832 397.313C316.652 398.404 317.46 399.533 318.477 400.457C319.556 401.437 320.848 402.228 322.098 403.038C324.24 404.428 326.388 405.816 328.596 407.116C330.267 408.099 332.035 408.944 333.759 409.854C334.253 410.116 334.627 410.152 334.925 409.576C335.216 409.015 335.634 408.51 335.982 407.973C337.352 405.847 338.715 403.718 340.083 401.59C341.279 399.732 342.454 397.862 343.677 396.02C345.044 393.964 346.48 391.947 347.838 389.888C349.572 387.263 351.171 384.558 352.993 381.984C355.587 378.317 356.535 374.231 356.92 369.994C357.049 368.566 356.895 367.107 356.765 365.67C356.625 364.127 356.201 362.653 355.272 361.309C353.49 358.735 350.943 357.305 347.64 357.353C346.127 357.374 344.625 357.968 343.034 358.378ZM324.312 371.941C323.937 370.209 323.723 368.431 323.141 366.76C322.473 364.848 321.604 362.971 320.596 361.187C318.899 358.182 316.654 355.567 313.398 353.799C310.91 352.446 308.272 352.081 305.475 352.791C305.192 352.862 304.933 353.015 304.664 353.13C304.935 353.236 305.205 353.341 305.476 353.448C305.547 353.476 305.615 353.512 305.689 353.535C308.1 354.303 310.106 355.682 311.905 357.26C313.65 358.791 315.21 360.501 316.811 362.167C319.202 364.654 321.021 367.493 322.698 370.407C323.275 371.413 323.697 372.491 324.209 373.529C324.265 373.643 324.449 373.704 324.574 373.79C324.614 373.65 324.706 373.502 324.685 373.369C324.611 372.915 324.495 372.467 324.312 371.941ZM294.122 366.701C293.98 367.028 293.722 367.356 293.722 367.683C293.72 368.739 293.805 369.796 293.871 370.852C293.911 371.473 293.897 372.11 294.053 372.709C294.554 374.634 295.047 376.549 295.854 378.413C297.439 382.074 299.751 385.281 302.627 388.158C304.053 389.584 305.647 390.871 307.192 392.196C308.049 392.932 308.955 393.621 309.851 394.318C309.993 394.427 310.197 394.468 310.373 394.541C310.31 394.365 310.29 394.163 310.177 394.02C309.476 393.127 308.694 392.283 308.049 391.357C306.623 389.314 305.239 387.244 303.878 385.163C302.011 382.307 300.075 379.481 298.366 376.548C296.553 373.439 294.751 370.292 294.122 366.701ZM348.095 354.988C349.243 354.789 350.326 355.058 351.394 355.388C354.455 356.332 356.629 358.241 358.109 360.791C359.162 362.602 359.633 364.581 359.488 366.656C359.477 366.822 359.591 366.993 359.647 367.163C359.761 366.99 359.962 366.822 359.971 366.644C360.051 365.102 360.171 363.557 360.128 362.017C360.099 361.025 359.907 360.018 359.631 359.056C358.642 355.584 355.638 353.62 351.744 353.779C350.454 353.833 349.174 354.15 347.898 354.382C347.534 354.448 347.195 354.639 346.846 354.772C347.206 354.844 347.566 354.917 348.095 354.988ZM326.505 408.774C326.35 408.683 326.203 408.571 326.036 408.506C325.811 408.419 325.568 408.37 325.334 408.304C325.451 408.467 325.537 408.659 325.688 408.79C327.442 410.302 329.199 411.815 330.981 413.302C331.134 413.428 331.534 413.469 331.704 413.376C332.032 413.198 332.329 412.925 332.534 412.631C332.625 412.501 332.535 412.105 332.395 412.028C330.473 410.948 328.528 409.904 326.505 408.774Z" fill="#EC615B"/>
</g>
</g>
</g>
<g id="Service Name">
<text id="#Agathon" fill="#000F99" xml:space="preserve" style="white-space: pre" font-family="Noto Sans JP" font-size="40" font-weight="900" letter-spacing="0em"><tspan x="65.3203" y="752.44">#Agathon</tspan></text>
</g>
<g id="Date">
<text id="2022-12-12 ~2022-12-19" fill="black" xml:space="preserve" style="white-space: pre" font-family="Noto Sans JP" font-size="28" font-weight="900" letter-spacing="0em"><tspan x="781.133" y="749.708"> 2022-12-12 ~2022-12-19</tspan></text>
</g>
<g id="Feeling Rank">
<text id="Feeling" fill="#91C5BE" xml:space="preserve" style="white-space: pre" font-family="Noto Sans JP" font-size="36" font-weight="900" letter-spacing="0em"><tspan x="677.002" y="425.696">Feeling</tspan></text>
<g id="Upper">
<g id="first">
<text id="1st:" fill="#91C5BE" xml:space="preserve" style="white-space: pre" font-family="Noto Sans JP" font-size="24" font-weight="bold" letter-spacing="0em"><tspan x="681.832" y="486.464">1st:</tspan></text>
<text id="40%" fill="#91C5BE" xml:space="preserve" style="white-space: pre" font-family="Noto Sans JP" font-size="24" font-weight="bold" letter-spacing="0em"><tspan x="810.789" y="485.464">40%</tspan></text>
<g id="twemoji:frowning-face" clip-path="url(#clip0_140_4)">
<path id="Vector_2" d="M798 475C798 490.464 785.464 503 770 503C754.538 503 742 490.464 742 475C742 459.538 754.538 447 770 447C785.464 447 798 459.538 798 475Z" fill="#FFCC4D"/>
<path id="Vector_3" d="M759.889 475C762.037 475 763.778 472.562 763.778 469.556C763.778 466.549 762.037 464.111 759.889 464.111C757.741 464.111 756 466.549 756 469.556C756 472.562 757.741 475 759.889 475Z" fill="#664500"/>
<path id="Vector_4" d="M780.111 475C782.259 475 784 472.562 784 469.556C784 466.549 782.259 464.111 780.111 464.111C777.963 464.111 776.222 466.549 776.222 469.556C776.222 472.562 777.963 475 780.111 475Z" fill="#664500"/>
<path id="Vector_5" d="M755.479 490.355C755.613 490.475 755.785 490.546 755.965 490.554C756.145 490.562 756.322 490.508 756.467 490.4C756.527 490.355 762.568 485.889 770 485.889C777.414 485.889 783.474 490.355 783.533 490.4C783.678 490.508 783.855 490.563 784.035 490.555C784.215 490.547 784.387 490.476 784.521 490.356C784.655 490.235 784.743 490.071 784.769 489.893C784.796 489.715 784.76 489.533 784.667 489.378C784.467 489.045 779.663 481.222 770 481.222C760.337 481.222 755.532 489.044 755.333 489.378C755.24 489.532 755.204 489.714 755.23 489.893C755.257 490.071 755.345 490.234 755.479 490.355V490.355Z" fill="#664500"/>
</g>
</g>
<g id="second">
<text id="2nd:" fill="#91C5BE" xml:space="preserve" style="white-space: pre" font-family="Noto Sans JP" font-size="24" font-weight="bold" letter-spacing="0em"><tspan x="901.109" y="486.464">2nd:</tspan></text>
<text id="40%_2" fill="#91C5BE" xml:space="preserve" style="white-space: pre" font-family="Noto Sans JP" font-size="24" font-weight="bold" letter-spacing="0em"><tspan x="1034.79" y="485.464">40%</tspan></text>
<g id="twemoji:frowning-face_2" clip-path="url(#clip1_140_4)">
<path id="Vector_6" d="M1022 475C1022 490.464 1009.46 503 994 503C978.538 503 966 490.464 966 475C966 459.538 978.538 447 994 447C1009.46 447 1022 459.538 1022 475Z" fill="#FFCC4D"/>
<path id="Vector_7" d="M983.889 475C986.037 475 987.778 472.562 987.778 469.556C987.778 466.549 986.037 464.111 983.889 464.111C981.741 464.111 980 466.549 980 469.556C980 472.562 981.741 475 983.889 475Z" fill="#664500"/>
<path id="Vector_8" d="M1004.11 475C1006.26 475 1008 472.562 1008 469.556C1008 466.549 1006.26 464.111 1004.11 464.111C1001.96 464.111 1000.22 466.549 1000.22 469.556C1000.22 472.562 1001.96 475 1004.11 475Z" fill="#664500"/>
<path id="Vector_9" d="M979.479 490.355C979.613 490.475 979.785 490.546 979.965 490.554C980.145 490.562 980.322 490.508 980.467 490.4C980.527 490.355 986.568 485.889 994 485.889C1001.41 485.889 1007.47 490.355 1007.53 490.4C1007.68 490.508 1007.85 490.563 1008.04 490.555C1008.22 490.547 1008.39 490.476 1008.52 490.356C1008.65 490.235 1008.74 490.071 1008.77 489.893C1008.8 489.715 1008.76 489.533 1008.67 489.378C1008.47 489.045 1003.66 481.222 994 481.222C984.337 481.222 979.532 489.044 979.333 489.378C979.24 489.532 979.204 489.714 979.23 489.893C979.257 490.071 979.345 490.234 979.479 490.355V490.355Z" fill="#664500"/>
</g>
</g>
</g>
<g id="Middle">
<g id="third">
<text id="3rd:" fill="#91C5BE" xml:space="preserve" style="white-space: pre" font-family="Noto Sans JP" font-size="24" font-weight="bold" letter-spacing="0em"><tspan x="679.758" y="570.464">3rd:</tspan></text>
<text id="40%_3" fill="#91C5BE" xml:space="preserve" style="white-space: pre" font-family="Noto Sans JP" font-size="24" font-weight="bold" letter-spacing="0em"><tspan x="810.789" y="569.464">40%</tspan></text>
<g id="twemoji:frowning-face_3" clip-path="url(#clip2_140_4)">
<path id="Vector_10" d="M798 559C798 574.464 785.464 587 770 587C754.538 587 742 574.464 742 559C742 543.538 754.538 531 770 531C785.464 531 798 543.538 798 559Z" fill="#FFCC4D"/>
<path id="Vector_11" d="M759.889 559C762.037 559 763.778 556.563 763.778 553.556C763.778 550.549 762.037 548.111 759.889 548.111C757.741 548.111 756 550.549 756 553.556C756 556.563 757.741 559 759.889 559Z" fill="#664500"/>
<path id="Vector_12" d="M780.111 559C782.259 559 784 556.563 784 553.556C784 550.549 782.259 548.111 780.111 548.111C777.963 548.111 776.222 550.549 776.222 553.556C776.222 556.563 777.963 559 780.111 559Z" fill="#664500"/>
<path id="Vector_13" d="M755.479 574.355C755.613 574.475 755.785 574.546 755.965 574.554C756.145 574.562 756.322 574.508 756.467 574.4C756.527 574.355 762.568 569.889 770 569.889C777.414 569.889 783.474 574.355 783.533 574.4C783.678 574.508 783.855 574.563 784.035 574.555C784.215 574.547 784.387 574.476 784.521 574.356C784.655 574.235 784.743 574.071 784.769 573.893C784.796 573.715 784.76 573.533 784.667 573.378C784.467 573.045 779.663 565.222 770 565.222C760.337 565.222 755.532 573.044 755.333 573.378C755.24 573.532 755.204 573.714 755.23 573.893C755.257 574.071 755.345 574.234 755.479 574.355V574.355Z" fill="#664500"/>
</g>
</g>
<g id="fourth">
<text id="4th:" fill="#91C5BE" xml:space="preserve" style="white-space: pre" font-family="Noto Sans JP" font-size="24" font-weight="bold" letter-spacing="0em"><tspan x="903.793" y="570.464">4th:</tspan></text>
<text id="40%_4" fill="#91C5BE" xml:space="preserve" style="white-space: pre" font-family="Noto Sans JP" font-size="24" font-weight="bold" letter-spacing="0em"><tspan x="1034.79" y="569.464">40%</tspan></text>
<g id="twemoji:frowning-face_4" clip-path="url(#clip3_140_4)">
<path id="Vector_14" d="M1022 559C1022 574.464 1009.46 587 994 587C978.538 587 966 574.464 966 559C966 543.538 978.538 531 994 531C1009.46 531 1022 543.538 1022 559Z" fill="#FFCC4D"/>
<path id="Vector_15" d="M983.889 559C986.037 559 987.778 556.563 987.778 553.556C987.778 550.549 986.037 548.111 983.889 548.111C981.741 548.111 980 550.549 980 553.556C980 556.563 981.741 559 983.889 559Z" fill="#664500"/>
<path id="Vector_16" d="M1004.11 559C1006.26 559 1008 556.563 1008 553.556C1008 550.549 1006.26 548.111 1004.11 548.111C1001.96 548.111 1000.22 550.549 1000.22 553.556C1000.22 556.563 1001.96 559 1004.11 559Z" fill="#664500"/>
<path id="Vector_17" d="M979.479 574.355C979.613 574.475 979.785 574.546 979.965 574.554C980.145 574.562 980.322 574.508 980.467 574.4C980.527 574.355 986.568 569.889 994 569.889C1001.41 569.889 1007.47 574.355 1007.53 574.4C1007.68 574.508 1007.85 574.563 1008.04 574.555C1008.22 574.547 1008.39 574.476 1008.52 574.356C1008.65 574.235 1008.74 574.071 1008.77 573.893C1008.8 573.715 1008.76 573.533 1008.67 573.378C1008.47 573.045 1003.66 565.222 994 565.222C984.337 565.222 979.532 573.044 979.333 573.378C979.24 573.532 979.204 573.714 979.23 573.893C979.257 574.071 979.345 574.234 979.479 574.355V574.355Z" fill="#664500"/>
</g>
</g>
</g>
<g id="Bottom">
<g id="fifth">
<text id="5th:" fill="#91C5BE" xml:space="preserve" style="white-space: pre" font-family="Noto Sans JP" font-size="24" font-weight="bold" letter-spacing="0em"><tspan x="679.793" y="654.464">5th:</tspan></text>
<text id="40%_5" fill="#91C5BE" xml:space="preserve" style="white-space: pre" font-family="Noto Sans JP" font-size="24" font-weight="bold" letter-spacing="0em"><tspan x="810.789" y="653.464">40%</tspan></text>
<g id="twemoji:frowning-face_5" clip-path="url(#clip4_140_4)">
<path id="Vector_18" d="M798 643C798 658.464 785.464 671 770 671C754.538 671 742 658.464 742 643C742 627.538 754.538 615 770 615C785.464 615 798 627.538 798 643Z" fill="#FFCC4D"/>
<path id="Vector_19" d="M759.889 643C762.037 643 763.778 640.563 763.778 637.556C763.778 634.549 762.037 632.111 759.889 632.111C757.741 632.111 756 634.549 756 637.556C756 640.563 757.741 643 759.889 643Z" fill="#664500"/>
<path id="Vector_20" d="M780.111 643C782.259 643 784 640.563 784 637.556C784 634.549 782.259 632.111 780.111 632.111C777.963 632.111 776.222 634.549 776.222 637.556C776.222 640.563 777.963 643 780.111 643Z" fill="#664500"/>
<path id="Vector_21" d="M755.479 658.355C755.613 658.475 755.785 658.546 755.965 658.554C756.145 658.562 756.322 658.508 756.467 658.4C756.527 658.355 762.568 653.889 770 653.889C777.414 653.889 783.474 658.355 783.533 658.4C783.678 658.508 783.855 658.563 784.035 658.555C784.215 658.547 784.387 658.476 784.521 658.356C784.655 658.235 784.743 658.071 784.769 657.893C784.796 657.715 784.76 657.533 784.667 657.378C784.467 657.045 779.663 649.222 770 649.222C760.337 649.222 755.532 657.044 755.333 657.378C755.24 657.532 755.204 657.714 755.23 657.893C755.257 658.071 755.345 658.234 755.479 658.355V658.355Z" fill="#664500"/>
</g>
</g>
</g>
</g>
<g id="Condition Rank">
<text id="Condition" fill="#91C5BE" xml:space="preserve" style="white-space: pre" font-family="Noto Sans JP" font-size="36" font-weight="900" letter-spacing="0em"><tspan x="677.447" y="110.696">Condition</tspan></text>
<g id="Upper_2">
<g id="first_2">
<text id="1st:_2" fill="#91C5BE" xml:space="preserve" style="white-space: pre" font-family="Noto Sans JP" font-size="24" font-weight="bold" letter-spacing="0em"><tspan x="681.832" y="172.464">1st:</tspan></text>
<text id="40%_6" fill="#91C5BE" xml:space="preserve" style="white-space: pre" font-family="Noto Sans JP" font-size="24" font-weight="bold" letter-spacing="0em"><tspan x="810.789" y="171.464">40%</tspan></text>
<g id="twemoji:frowning-face_6" clip-path="url(#clip5_140_4)">
<path id="Vector_22" d="M798 161C798 176.464 785.464 189 770 189C754.538 189 742 176.464 742 161C742 145.538 754.538 133 770 133C785.464 133 798 145.538 798 161Z" fill="#FFCC4D"/>
<path id="Vector_23" d="M759.889 161C762.037 161 763.778 158.562 763.778 155.556C763.778 152.549 762.037 150.111 759.889 150.111C757.741 150.111 756 152.549 756 155.556C756 158.562 757.741 161 759.889 161Z" fill="#664500"/>
<path id="Vector_24" d="M780.111 161C782.259 161 784 158.562 784 155.556C784 152.549 782.259 150.111 780.111 150.111C777.963 150.111 776.222 152.549 776.222 155.556C776.222 158.562 777.963 161 780.111 161Z" fill="#664500"/>
<path id="Vector_25" d="M755.479 176.355C755.613 176.475 755.785 176.546 755.965 176.554C756.145 176.562 756.322 176.508 756.467 176.4C756.527 176.355 762.568 171.889 770 171.889C777.414 171.889 783.474 176.355 783.533 176.4C783.678 176.508 783.855 176.563 784.035 176.555C784.215 176.547 784.387 176.476 784.521 176.356C784.655 176.235 784.743 176.071 784.769 175.893C784.796 175.715 784.76 175.533 784.667 175.378C784.467 175.045 779.663 167.222 770 167.222C760.337 167.222 755.532 175.044 755.333 175.378C755.24 175.532 755.204 175.714 755.23 175.893C755.257 176.071 755.345 176.234 755.479 176.355V176.355Z" fill="#664500"/>
</g>
</g>
<g id="second_2">
<text id="2nd:_2" fill="#91C5BE" xml:space="preserve" style="white-space: pre" font-family="Noto Sans JP" font-size="24" font-weight="bold" letter-spacing="0em"><tspan x="901.109" y="172.464">2nd:</tspan></text>
<text id="40%_7" fill="#91C5BE" xml:space="preserve" style="white-space: pre" font-family="Noto Sans JP" font-size="24" font-weight="bold" letter-spacing="0em"><tspan x="1034.79" y="171.464">40%</tspan></text>
<g id="twemoji:frowning-face_7" clip-path="url(#clip6_140_4)">
<path id="Vector_26" d="M1022 161C1022 176.464 1009.46 189 994 189C978.538 189 966 176.464 966 161C966 145.538 978.538 133 994 133C1009.46 133 1022 145.538 1022 161Z" fill="#FFCC4D"/>
<path id="Vector_27" d="M983.889 161C986.037 161 987.778 158.562 987.778 155.556C987.778 152.549 986.037 150.111 983.889 150.111C981.741 150.111 980 152.549 980 155.556C980 158.562 981.741 161 983.889 161Z" fill="#664500"/>
<path id="Vector_28" d="M1004.11 161C1006.26 161 1008 158.562 1008 155.556C1008 152.549 1006.26 150.111 1004.11 150.111C1001.96 150.111 1000.22 152.549 1000.22 155.556C1000.22 158.562 1001.96 161 1004.11 161Z" fill="#664500"/>
<path id="Vector_29" d="M979.479 176.355C979.613 176.475 979.785 176.546 979.965 176.554C980.145 176.562 980.322 176.508 980.467 176.4C980.527 176.355 986.568 171.889 994 171.889C1001.41 171.889 1007.47 176.355 1007.53 176.4C1007.68 176.508 1007.85 176.563 1008.04 176.555C1008.22 176.547 1008.39 176.476 1008.52 176.356C1008.65 176.235 1008.74 176.071 1008.77 175.893C1008.8 175.715 1008.76 175.533 1008.67 175.378C1008.47 175.045 1003.66 167.222 994 167.222C984.337 167.222 979.532 175.044 979.333 175.378C979.24 175.532 979.204 175.714 979.23 175.893C979.257 176.071 979.345 176.234 979.479 176.355V176.355Z" fill="#664500"/>
</g>
</g>
</g>
<g id="Middle_2">
<g id="third_2">
<text id="3rd:_2" fill="#91C5BE" xml:space="preserve" style="white-space: pre" font-family="Noto Sans JP" font-size="24" font-weight="bold" letter-spacing="0em"><tspan x="679.758" y="256.464">3rd:</tspan></text>
<text id="40%_8" fill="#91C5BE" xml:space="preserve" style="white-space: pre" font-family="Noto Sans JP" font-size="24" font-weight="bold" letter-spacing="0em"><tspan x="810.789" y="255.464">40%</tspan></text>
<g id="twemoji:frowning-face_8" clip-path="url(#clip7_140_4)">
<path id="Vector_30" d="M798 245C798 260.464 785.464 273 770 273C754.538 273 742 260.464 742 245C742 229.538 754.538 217 770 217C785.464 217 798 229.538 798 245Z" fill="#FFCC4D"/>
<path id="Vector_31" d="M759.889 245C762.037 245 763.778 242.562 763.778 239.556C763.778 236.549 762.037 234.111 759.889 234.111C757.741 234.111 756 236.549 756 239.556C756 242.562 757.741 245 759.889 245Z" fill="#664500"/>
<path id="Vector_32" d="M780.111 245C782.259 245 784 242.562 784 239.556C784 236.549 782.259 234.111 780.111 234.111C777.963 234.111 776.222 236.549 776.222 239.556C776.222 242.562 777.963 245 780.111 245Z" fill="#664500"/>
<path id="Vector_33" d="M755.479 260.355C755.613 260.475 755.785 260.546 755.965 260.554C756.145 260.562 756.322 260.508 756.467 260.4C756.527 260.355 762.568 255.889 770 255.889C777.414 255.889 783.474 260.355 783.533 260.4C783.678 260.508 783.855 260.563 784.035 260.555C784.215 260.547 784.387 260.476 784.521 260.356C784.655 260.235 784.743 260.071 784.769 259.893C784.796 259.715 784.76 259.533 784.667 259.378C784.467 259.045 779.663 251.222 770 251.222C760.337 251.222 755.532 259.044 755.333 259.378C755.24 259.532 755.204 259.714 755.23 259.893C755.257 260.071 755.345 260.234 755.479 260.355V260.355Z" fill="#664500"/>
</g>
</g>
<g id="fourth_2">
<text id="4th:_2" fill="#91C5BE" xml:space="preserve" style="white-space: pre" font-family="Noto Sans JP" font-size="24" font-weight="bold" letter-spacing="0em"><tspan x="903.793" y="256.464">4th:</tspan></text>
<text id="40%_9" fill="#91C5BE" xml:space="preserve" style="white-space: pre" font-family="Noto Sans JP" font-size="24" font-weight="bold" letter-spacing="0em"><tspan x="1034.79" y="255.464">40%</tspan></text>
<g id="twemoji:frowning-face_9" clip-path="url(#clip8_140_4)">
<path id="Vector_34" d="M1022 245C1022 260.464 1009.46 273 994 273C978.538 273 966 260.464 966 245C966 229.538 978.538 217 994 217C1009.46 217 1022 229.538 1022 245Z" fill="#FFCC4D"/>
<path id="Vector_35" d="M983.889 245C986.037 245 987.778 242.562 987.778 239.556C987.778 236.549 986.037 234.111 983.889 234.111C981.741 234.111 980 236.549 980 239.556C980 242.562 981.741 245 983.889 245Z" fill="#664500"/>
<path id="Vector_36" d="M1004.11 245C1006.26 245 1008 242.562 1008 239.556C1008 236.549 1006.26 234.111 1004.11 234.111C1001.96 234.111 1000.22 236.549 1000.22 239.556C1000.22 242.562 1001.96 245 1004.11 245Z" fill="#664500"/>
<path id="Vector_37" d="M979.479 260.355C979.613 260.475 979.785 260.546 979.965 260.554C980.145 260.562 980.322 260.508 980.467 260.4C980.527 260.355 986.568 255.889 994 255.889C1001.41 255.889 1007.47 260.355 1007.53 260.4C1007.68 260.508 1007.85 260.563 1008.04 260.555C1008.22 260.547 1008.39 260.476 1008.52 260.356C1008.65 260.235 1008.74 260.071 1008.77 259.893C1008.8 259.715 1008.76 259.533 1008.67 259.378C1008.47 259.045 1003.66 251.222 994 251.222C984.337 251.222 979.532 259.044 979.333 259.378C979.24 259.532 979.204 259.714 979.23 259.893C979.257 260.071 979.345 260.234 979.479 260.355V260.355Z" fill="#664500"/>
</g>
</g>
</g>
<g id="Bottom_2">
<g id="fifth_2">
<text id="5th:_2" fill="#91C5BE" xml:space="preserve" style="white-space: pre" font-family="Noto Sans JP" font-size="24" font-weight="bold" letter-spacing="0em"><tspan x="679.793" y="340.464">5th:</tspan></text>
<text id="40%_10" fill="#91C5BE" xml:space="preserve" style="white-space: pre" font-family="Noto Sans JP" font-size="24" font-weight="bold" letter-spacing="0em"><tspan x="810.789" y="339.464">40%</tspan></text>
<g id="twemoji:frowning-face_10" clip-path="url(#clip9_140_4)">
<path id="Vector_38" d="M798 329C798 344.464 785.464 357 770 357C754.538 357 742 344.464 742 329C742 313.538 754.538 301 770 301C785.464 301 798 313.538 798 329Z" fill="#FFCC4D"/>
<path id="Vector_39" d="M759.889 329C762.037 329 763.778 326.562 763.778 323.556C763.778 320.549 762.037 318.111 759.889 318.111C757.741 318.111 756 320.549 756 323.556C756 326.562 757.741 329 759.889 329Z" fill="#664500"/>
<path id="Vector_40" d="M780.111 329C782.259 329 784 326.562 784 323.556C784 320.549 782.259 318.111 780.111 318.111C777.963 318.111 776.222 320.549 776.222 323.556C776.222 326.562 777.963 329 780.111 329Z" fill="#664500"/>
<path id="Vector_41" d="M755.479 344.355C755.613 344.475 755.785 344.546 755.965 344.554C756.145 344.562 756.322 344.508 756.467 344.4C756.527 344.355 762.568 339.889 770 339.889C777.414 339.889 783.474 344.355 783.533 344.4C783.678 344.508 783.855 344.563 784.035 344.555C784.215 344.547 784.387 344.476 784.521 344.356C784.655 344.235 784.743 344.071 784.769 343.893C784.796 343.715 784.76 343.533 784.667 343.378C784.467 343.045 779.663 335.222 770 335.222C760.337 335.222 755.532 343.044 755.333 343.378C755.24 343.532 755.204 343.714 755.23 343.893C755.257 344.071 755.345 344.234 755.479 344.355V344.355Z" fill="#664500"/>
</g>
</g>
</g>
</g>
</g>
<defs>
<clipPath id="clip0_140_4">
<rect width="56" height="56" fill="white" transform="translate(742 447)"/>
</clipPath>
<clipPath id="clip1_140_4">
<rect width="56" height="56" fill="white" transform="translate(966 447)"/>
</clipPath>
<clipPath id="clip2_140_4">
<rect width="56" height="56" fill="white" transform="translate(742 531)"/>
</clipPath>
<clipPath id="clip3_140_4">
<rect width="56" height="56" fill="white" transform="translate(966 531)"/>
</clipPath>
<clipPath id="clip4_140_4">
<rect width="56" height="56" fill="white" transform="translate(742 615)"/>
</clipPath>
<clipPath id="clip5_140_4">
<rect width="56" height="56" fill="white" transform="translate(742 133)"/>
</clipPath>
<clipPath id="clip6_140_4">
<rect width="56" height="56" fill="white" transform="translate(966 133)"/>
</clipPath>
<clipPath id="clip7_140_4">
<rect width="56" height="56" fill="white" transform="translate(742 217)"/>
</clipPath>
<clipPath id="clip8_140_4">
<rect width="56" height="56" fill="white" transform="translate(966 217)"/>
</clipPath>
<clipPath id="clip9_140_4">
<rect width="56" height="56" fill="white" transform="translate(742 301)"/>
</clipPath>
</defs>
</svg>
